<?xml version="1.0" standalone="no"?>
<!DOCTYPE svg PUBLIC "-//W3C//DTD SVG 20010904//EN"
 "http://www.w3.org/TR/2001/REC-SVG-20010904/DTD/svg10.dtd">
<svg version="1.0" xmlns="http://www.w3.org/2000/svg"
 width="200.000000pt" height="200.000000pt" viewBox="0 0 200.000000 200.000000"
 preserveAspectRatio="xMidYMid meet">
<metadata>
Created by potrace 1.10, written by Peter Selinger 2001-2011
</metadata>
<g transform="translate(0.000000,200.000000) scale(0.100000,-0.100000)"
fill="#1395da" stroke="none">
<path d="M900 1830 c-272 -36 -520 -215 -640 -464 -220 -454 10 -996 490
-1156 417 -140 863 58 1038 462 94 218 86 485 -19 693 -49 96 -81 140 -157
219 -184 190 -447 281 -712 246z m551 -345 c35 -19 53 -58 44 -101 -10 -58
-15 -58 -299 -65 -283 -6 -310 -11 -378 -62 -99 -76 -150 -199 -128 -311 15
-78 39 -124 91 -175 54 -53 114 -81 192 -91 101 -12 127 -39 113 -116 -10 -53
-53 -68 -152 -55 -224 32 -382 193 -424 433 -32 181 93 409 271 497 102 50
167 59 417 60 183 1 228 -2 253 -14z m28 -431 c20 -25 21 -39 21 -255 0 -149
-4 -237 -11 -253 -24 -52 -122 -54 -147 -3 -6 12 -13 54 -16 92 -6 85 -25 132
-74 187 -49 54 -106 78 -210 88 -71 6 -89 11 -104 30 -25 31 -23 88 4 117 21
23 23 23 269 23 l248 0 20 -26z"/>
</g>
</svg>
